# xmcd
#
# Track frame offsets: 
#        150
#        19725
#        39655
#        61697
#        77950
#        95085
#        111312
#        131597
#        157790
#        177345
#        194760
#        212405
#        229255
#
# Disc length: 3279 seconds
#
# Revision: 1
# Processed by: cddbd v1.5.2PL0 Copyright (c) Steve Scherf et al.
# Submitted via: ExactAudioCopy v0.99pb4
#
DISCID=af0ccd0d
DTITLE=Lisbeth Scott - Climb
DYEAR=1997
DGENRE=Pop
TTITLE0=Out Here
TTITLE1=Ride
TTITLE2=Lay You Down
TTITLE3=Stranger
TTITLE4=Tow Me
TTITLE5=The Things I Wanna Do
TTITLE6=Waiting
TTITLE7=Secret Harvest
TTITLE8=Tell My Heart
TTITLE9=Burn
TTITLE10=Love Is All
TTITLE11=Shovel
TTITLE12=Climb
EXTD=
EXTT0=
EXTT1=
EXTT2=
EXTT3=
EXTT4=
EXTT5=
EXTT6=
EXTT7=
EXTT8=
EXTT9=
EXTT10=
EXTT11=
EXTT12=
PLAYORDER=
